ply
format ascii 1.0
comment finalhysteresis 0.71
comment created by LBGStippling
element vertex 182
property float x
property float y
property float z
property float size
element face 0
property list uchar int vertex_indices
end_header
0.0243678 0 0.365229 31.9034
0.079987 0 0.336579 31.9891
0.0320254 0 0.486892 25.5093
0.0700436 0 0.426095 30.7912
0.029087 0 0.26379 31.6719
0.0831448 0 0.233744 31.8546
0.134105 0 0.335483 32
0.138136 0 0.261059 32
0.130908 0 0.494509 28.377
0.134211 0 0.419866 31.9969
0.155583 0 0.572287 28.962
0.210926 0 0.536108 30.8439
0.181459 0 0.386003 31.7385
0.18852 0 0.304321 31.5444
0.231705 0 0.397439 21.5611
0.238614 0 0.320101 20.4318
0.206684 0 0.466006 30.2872
0.282307 0 0.47475 22.3415
0.353553 0 0.430661 13.0492
0.0243046 0 0.163812 31.698
0.0720911 0 0.137695 31.6056
0.0265303 0 0.0537207 31.2094
0.0819736 0 0.0422233 31.4115
0.126646 0 0.108294 31.8964
0.136233 0 0.178587 31.9893
0.141102 0 0.0380056 31.7911
0.195821 0 0.0395455 31.9968
0.186534 0 0.209323 30.8722
0.235248 0 0.24951 21.935
0.288945 0 0.220461 14.8379
0.194553 0 0.11683 31.6024
0.239999 0 0.16735 27.628
0.25063 0 0.0384587 30.6419
0.282699 0 0.0972626 21.213
0.320718 0 0.032222 23.2314
0.345965 0 0.172273 17.0815
0.386577 0 0.143826 17.1792
0.383781 0 0.0301608 22.177
0.0315539 0 0.881872 31.7221
0.0258259 0 0.789929 31.7559
0.0802315 0 0.805025 27.1371
0.0384793 0 0.961088 31.4587
0.102852 0 0.962193 29.0085
0.0946929 0 0.88025 28.2411
0.138563 0 0.898406 19.9625
0.157278 0 0.956741 12.9642
0.198369 0 0.848861 24.453
0.0234429 0 0.69579 30.904
0.0736672 0 0.707598 26.995
0.0230467 0 0.603476 23.8203
0.0834412 0 0.587079 22.8329
0.142421 0 0.729541 28.9806
0.169206 0 0.788444 28.1534
0.149328 0 0.659868 27.0314
0.198275 0 0.641166 29.5889
0.213526 0 0.733583 30.5971
0.251599 0 0.669728 29.0637
0.279778 0 0.738506 28.4388
0.326245 0 0.775826 25.1867
0.25569 0 0.596018 30.4678
0.281755 0 0.542595 30.2546
0.332508 0 0.533764 20.9491
0.311716 0 0.655996 29.2487
0.342044 0 0.597956 22.2453
0.367726 0 0.717689 23.795
0.38718 0 0.653137 18.3098
0.245714 0 0.811477 30.25
0.298668 0 0.838023 30.1348
0.260984 0 0.901326 24.2621
0.296633 0 0.969494 26.8474
0.325422 0 0.916513 30.24
0.372748 0 0.961221 30.5947
0.441503 0 0.962035 27.4458
0.358181 0 0.859713 27.4599
0.399367 0 0.801781 21.3158
0.413779 0 0.883839 27.1731
0.452964 0 0.684501 13.9794
0.489835 0 0.620652 15.8667
0.522706 0 0.573164 24.3993
0.441717 0 0.555647 11.2219
0.481088 0 0.518138 20.5945
0.485126 0 0.429377 20.2632
0.519063 0 0.497768 21.3667
0.566786 0 0.523869 24.6148
0.596989 0 0.469731 21.2025
0.577635 0 0.60524 18.9687
0.636811 0 0.564993 21.5765
0.627897 0 0.683175 21.6983
0.682994 0 0.719624 25.1784
0.466419 0 0.857377 20.6319
0.485325 0 0.778776 15.8638
0.537568 0 0.865646 20.2056
0.511141 0 0.975447 23.2461
0.578623 0 0.970686 25.7577
0.61254 0 0.921983 25.4221
0.5423 0 0.768559 19.6016
0.593127 0 0.740108 22.7039
0.595492 0 0.84251 26.1954
0.650509 0 0.906832 12.3101
0.645512 0 0.775029 23.6281
0.66384 0 0.844987 20.8869
0.698378 0 0.773131 15.4555
0.672138 0 0.497623 17.6935
0.732893 0 0.427174 15.4436
0.759467 0 0.49565 14.2402
0.692737 0 0.617763 19.425
0.702452 0 0.55667 17.8698
0.756382 0 0.684424 11.7849
0.77841 0 0.607755 13.7251
0.81212 0 0.528033 14.6358
0.865329 0 0.502276 16.1103
0.838406 0 0.606672 15.2564
0.900521 0 0.606849 17.1222
0.92559 0 0.527627 18.6208
0.974562 0 0.495033 20.9514
0.971889 0 0.588775 20.0136
0.764406 0 0.962609 9.06178
0.789529 0 0.895087 11.0814
0.846498 0 0.955877 13.3257
0.799686 0 0.811948 11.7976
0.860817 0 0.868041 14.5254
0.90984 0 0.948375 15.4926
0.969441 0 0.963187 17.6883
0.934039 0 0.859541 15.6052
0.978239 0 0.883512 17.6675
0.823055 0 0.730452 13.0567
0.874517 0 0.678852 15.3087
0.889615 0 0.801861 14.9684
0.912223 0 0.73516 15.0134
0.962975 0 0.674687 18.0371
0.972645 0 0.777486 16.5052
0.335953 0 0.305064 13.7309
0.376977 0 0.280002 17.1497
0.392628 0 0.34472 19.0325
0.425443 0 0.438619 12.2468
0.466305 0 0.327363 25.9376
0.43595 0 0.250066 22.8207
0.443673 0 0.17087 18.7361
0.500773 0 0.219405 24.5127
0.51553 0 0.376876 19.5356
0.513672 0 0.2811 22.3321
0.581751 0 0.388369 15.1951
0.6687 0 0.391064 17.8008
0.620127 0 0.301692 21.975
0.66645 0 0.33922 23.1904
0.433656 0 0.0382396 23.706
0.478306 0 0.0456204 19.551
0.490404 0 0.128726 18.2455
0.508865 0 0.0828597 18.8363
0.564132 0 0.212628 24.802
0.543497 0 0.133517 18.9598
0.599768 0 0.172233 19.5511
0.611801 0 0.241016 26.5936
0.66509 0 0.259231 20.6727
0.725362 0 0.215467 16.249
0.632184 0 0.0315095 17.5899
0.687256 0 0.0368369 24.4479
0.669167 0 0.121046 17.967
0.724699 0 0.123311 20.191
0.745227 0 0.0400312 23.4006
0.804789 0 0.0368718 23.9723
0.784623 0 0.129184 19.6921
0.848036 0 0.137639 20.8975
0.858794 0 0.0510919 23.7579
0.912514 0 0.0324434 26.0365
0.972289 0 0.0458369 27.2463
0.91564 0 0.188966 21.4104
0.917068 0 0.111079 23.1495
0.97435 0 0.147517 24.6029
0.74436 0 0.339269 15.2688
0.793542 0 0.304618 16.6513
0.807099 0 0.428984 16.8405
0.838678 0 0.372606 17.7415
0.792899 0 0.222379 17.3836
0.852393 0 0.220774 19.25
0.862627 0 0.305482 18.8621
0.910837 0 0.266627 20.2393
0.906875 0 0.369244 19.525
0.905805 0 0.442768 18.8626
0.971037 0 0.411644 21.2202
0.965375 0 0.32847 21.5051
0.972855 0 0.242868 23.0734
