ply
format ascii 1.0
comment finalhysteresis 0.89
comment created by LBGStippling
element vertex 715
property float x
property float y
property float z
property float size
element face 0
property list uchar int vertex_indices
end_header
0.0126236 0 0.379431 15.9817
0.0416682 0 0.35806 15.985
0.0144097 0 0.330862 15.9082
0.0464833 0 0.316811 15.9222
0.0735346 0 0.350314 16
0.0813831 0 0.310053 15.9972
0.0694532 0 0.391251 16
0.100818 0 0.385592 16
0.0126226 0 0.477026 13.0956
0.0162249 0 0.428886 15.0867
0.0384222 0 0.518313 11.5721
0.0577295 0 0.486526 13.5072
0.0379436 0 0.397757 15.9847
0.0532538 0 0.428236 14.9926
0.0678779 0 0.456557 14.3803
0.0907261 0 0.427159 15.9357
0.014166 0 0.239823 15.8413
0.0434662 0 0.236036 15.786
0.0176012 0 0.28401 15.8595
0.0545 0 0.277013 15.8814
0.070522 0 0.203053 15.8646
0.103615 0 0.216247 15.9844
0.0767387 0 0.242505 15.9207
0.0929052 0 0.273426 15.9958
0.118079 0 0.305221 16
0.105624 0 0.34443 16
0.13607 0 0.342639 16
0.160452 0 0.332936 16
0.121476 0 0.261991 16
0.133557 0 0.227774 16
0.149457 0 0.29451 16
0.15628 0 0.254628 16
0.0938618 0 0.493744 12.2348
0.113833 0 0.461182 15.2891
0.137616 0 0.492923 15.2941
0.171171 0 0.493942 15.7973
0.12316 0 0.422933 16
0.131695 0 0.382715 16
0.148708 0 0.457102 15.8903
0.153607 0 0.418806 16
0.124341 0 0.524742 12.4017
0.137992 0 0.564712 13.536
0.157849 0 0.531838 15.1583
0.148374 0 0.602764 15.0338
0.171692 0 0.572585 14.9258
0.189396 0 0.538384 15.6021
0.201726 0 0.506249 15.7178
0.20572 0 0.573534 14.693
0.224984 0 0.53869 15.6962
0.161646 0 0.379823 16
0.182489 0 0.356576 15.9994
0.181118 0 0.418848 15.9729
0.195451 0 0.393034 15.638
0.182541 0 0.314536 15.999
0.205519 0 0.2912 15.0422
0.207728 0 0.360169 15.1402
0.223504 0 0.390749 13.8895
0.209016 0 0.326717 15.1678
0.23566 0 0.301781 12.953
0.233202 0 0.346562 12.0504
0.258314 0 0.323618 7.86041
0.180775 0 0.455571 15.8841
0.207846 0 0.471728 15.4707
0.232566 0 0.497133 15.0019
0.209811 0 0.432846 14.673
0.239657 0 0.462489 14.0134
0.237989 0 0.423359 12.4535
0.264524 0 0.453933 11.7742
0.252101 0 0.382085 7.77891
0.278186 0 0.426269 7.61485
0.289269 0 0.396204 3.84568
0.252544 0 0.52453 15.3507
0.268562 0 0.491932 14.627
0.292831 0 0.470762 11.0197
0.301569 0 0.505514 14.3023
0.327024 0 0.434252 7.06136
0.35676 0 0.406507 6.96363
0.321596 0 0.476985 10.105
0.354914 0 0.450721 6.48237
0.0141259 0 0.10927 15.7299
0.0176919 0 0.152937 15.8737
0.013334 0 0.195585 15.8545
0.0411096 0 0.191186 15.8649
0.0433333 0 0.121379 15.693
0.0738748 0 0.110785 15.7616
0.0575945 0 0.156112 15.9007
0.087337 0 0.170645 15.8751
0.0141853 0 0.063934 15.6501
0.0419779 0 0.0780733 15.6346
0.0138695 0 0.0202838 15.5937
0.0409786 0 0.0267651 15.5719
0.0676905 0 0.0638447 15.6954
0.0949864 0 0.0629989 15.7788
0.0678988 0 0.0203573 15.6419
0.09582 0 0.0210764 15.7408
0.107382 0 0.097622 15.8706
0.0994513 0 0.135516 15.8854
0.140601 0 0.0927936 15.99
0.131975 0 0.130492 15.9954
0.117967 0 0.171242 15.9859
0.140085 0 0.192018 16
0.153854 0 0.153288 16
0.173516 0 0.180615 16
0.123827 0 0.0195697 15.7885
0.152782 0 0.0187157 15.9423
0.12453 0 0.0579974 15.8709
0.155929 0 0.0573268 15.972
0.180881 0 0.0728149 16
0.208283 0 0.0645035 15.9891
0.182456 0 0.0246365 15.9991
0.21126 0 0.017483 16
0.189682 0 0.23243 14.8557
0.180796 0 0.273977 15.9247
0.165372 0 0.216046 16
0.2012 0 0.191984 15.6826
0.233658 0 0.220256 11.3406
0.213468 0 0.258393 11.8491
0.249364 0 0.266773 11.093
0.258959 0 0.187739 13.7435
0.295711 0 0.189244 6.60809
0.27053 0 0.225876 8.91589
0.315462 0 0.244462 6.95254
0.1673 0 0.112108 16
0.187056 0 0.145758 15.9998
0.200836 0 0.107753 15.9656
0.230343 0 0.103216 14.5295
0.214673 0 0.149763 15.1657
0.229603 0 0.185199 15.6186
0.265036 0 0.103002 12.1782
0.243921 0 0.152171 13.925
0.272821 0 0.14607 9.57676
0.229462 0 0.0439796 15.9254
0.247712 0 0.0662559 14.8979
0.245884 0 0.01774 15.4962
0.274528 0 0.0212672 15.0358
0.280503 0 0.0620697 13.3226
0.2918 0 0.104883 10.3191
0.319112 0 0.0871699 8.52118
0.308739 0 0.0121026 13.3174
0.312861 0 0.0476607 11.5529
0.313486 0 0.142192 7.87691
0.342676 0 0.127677 8.3974
0.339178 0 0.215101 7.40873
0.348214 0 0.173952 9.37252
0.368114 0 0.18176 9.59165
0.372533 0 0.0944014 7.55573
0.39917 0 0.122863 7.11626
0.374688 0 0.150793 11.0022
0.39983 0 0.171081 10.5392
0.344798 0 0.0148817 12.5388
0.344186 0 0.0576558 10.1644
0.376266 0 0.013131 12.9901
0.384935 0 0.0510699 9.11753
0.411974 0 0.0668179 10.476
0.404214 0 0.0156539 13.9467
0.0144375 0 0.976936 15.5492
0.0126799 0 0.924652 15.8101
0.0358913 0 0.944615 15.8537
0.0137598 0 0.87743 15.9459
0.0368271 0 0.8521 15.8968
0.0425088 0 0.901152 15.8615
0.0617614 0 0.866086 15.5205
0.010667 0 0.826503 15.9952
0.0335111 0 0.813335 15.841
0.0130437 0 0.772514 15.9696
0.0431779 0 0.7839 15.7209
0.0667861 0 0.819449 15.0942
0.089503 0 0.852315 14.3693
0.0689652 0 0.774253 14.9145
0.0962751 0 0.782067 11.5481
0.0468448 0 0.98112 15.7306
0.0643791 0 0.937952 15.8596
0.0765708 0 0.978611 15.6981
0.0931578 0 0.938755 15.3197
0.103425 0 0.979145 14.655
0.128953 0 0.97945 12.4394
0.12003 0 0.938702 14.0233
0.146966 0 0.933004 11.1781
0.0768592 0 0.899326 15.373
0.1048 0 0.895952 14.2686
0.109625 0 0.818572 11.7206
0.124012 0 0.858552 11.0844
0.133092 0 0.900134 12.6305
0.162409 0 0.889007 7.06064
0.151426 0 0.965957 9.94137
0.175097 0 0.976428 4.77637
0.187252 0 0.918163 4.81308
0.201347 0 0.868355 11.942
0.17715 0 0.840672 12.2476
0.202652 0 0.824476 14.0758
0.0124665 0 0.721508 15.9812
0.0394263 0 0.711046 15.7682
0.012079 0 0.669059 15.9322
0.0359164 0 0.674657 14.2534
0.0396207 0 0.747425 15.7115
0.0720835 0 0.734548 13.7205
0.0625781 0 0.692688 15.1864
0.0891452 0 0.704503 12.9091
0.0130553 0 0.533025 11.8901
0.0175511 0 0.578538 10.9959
0.0125301 0 0.621719 13.8923
0.047524 0 0.620752 12.3382
0.0727259 0 0.651621 11.5369
0.106388 0 0.608537 11.5338
0.0741212 0 0.553607 11.0346
0.0781851 0 0.521956 12.5753
0.0718043 0 0.604519 10.4005
0.0900389 0 0.582342 12.4582
0.112949 0 0.71735 13.2074
0.13661 0 0.75779 13.8483
0.140129 0 0.718131 15.7846
0.164584 0 0.726941 15.5302
0.148468 0 0.797467 12.6156
0.175739 0 0.80467 15.3471
0.170085 0 0.764987 15.574
0.202776 0 0.775418 14.9184
0.134454 0 0.637227 11.8506
0.162909 0 0.645675 15.4694
0.136813 0 0.681259 13.4006
0.170576 0 0.686925 15.5239
0.194652 0 0.65271 14.9523
0.203019 0 0.691139 15.3503
0.184268 0 0.611352 14.4978
0.217071 0 0.615074 14.5925
0.191725 0 0.731149 15.6156
0.219034 0 0.732939 15.344
0.235945 0 0.770338 15.3741
0.249003 0 0.734207 14.6295
0.231684 0 0.654186 14.5037
0.234356 0 0.694204 14.8513
0.26606 0 0.691523 14.3981
0.268958 0 0.647756 14.6787
0.27691 0 0.738207 14.2996
0.273075 0 0.77496 15.303
0.296939 0 0.715285 13.7732
0.323711 0 0.694848 13.8889
0.306473 0 0.767994 13.8043
0.32606 0 0.810825 13.7898
0.32707 0 0.736837 12.0463
0.343603 0 0.772441 11.4486
0.238886 0 0.578622 15.2803
0.262597 0 0.561231 15.5698
0.249611 0 0.616663 15.1262
0.276893 0 0.601307 15.4352
0.281537 0 0.529639 15.1294
0.293857 0 0.567039 14.9451
0.312487 0 0.540532 14.9313
0.333866 0 0.509461 9.9135
0.330891 0 0.575718 12.7652
0.340791 0 0.540724 12.173
0.363508 0 0.559784 7.83169
0.300003 0 0.633351 15.3748
0.29622 0 0.671314 14.3974
0.326344 0 0.658049 14.798
0.309296 0 0.599487 14.8908
0.333604 0 0.625623 12.2818
0.361153 0 0.598908 10.5029
0.352588 0 0.704556 13.0456
0.368565 0 0.737517 12.0911
0.401395 0 0.736782 9.54396
0.355278 0 0.666734 12.471
0.385095 0 0.70004 11.6673
0.377465 0 0.636014 10.1868
0.411865 0 0.624342 6.73418
0.399941 0 0.66572 9.50193
0.229118 0 0.855766 13.446
0.255471 0 0.842586 15.1666
0.228861 0 0.811068 15.0481
0.257412 0 0.802945 15.4593
0.281306 0 0.829238 15.3207
0.297673 0 0.805142 15.2091
0.288258 0 0.866038 15.0394
0.314195 0 0.852005 14.9221
0.233831 0 0.898664 10.5657
0.261692 0 0.882333 14.2981
0.291311 0 0.905615 15.0889
0.264857 0 0.922148 14.1628
0.250771 0 0.945072 7.65799
0.261605 0 0.982214 7.72376
0.281687 0 0.973185 14.0236
0.291069 0 0.942049 15.6447
0.305254 0 0.979701 15.5743
0.32264 0 0.941236 15.5231
0.330741 0 0.981646 15.8147
0.320109 0 0.897784 15.0038
0.348403 0 0.886382 14.7334
0.355206 0 0.974097 15.6748
0.383415 0 0.983556 15.4119
0.352463 0 0.927635 15.1395
0.380986 0 0.945746 15.1518
0.414692 0 0.977608 14.6489
0.409674 0 0.933456 14.5369
0.447304 0 0.981369 14.7801
0.440228 0 0.942401 13.9119
0.473782 0 0.952862 11.1466
0.342365 0 0.846986 13.9572
0.373342 0 0.860953 13.2613
0.363283 0 0.816098 12.2851
0.378448 0 0.778104 11.2237
0.393603 0 0.828855 13.767
0.411611 0 0.779891 8.432
0.422137 0 0.819712 11.7389
0.402877 0 0.871047 13.8486
0.383688 0 0.904332 14.4345
0.42689 0 0.853311 13.5691
0.427231 0 0.896456 13.0945
0.457233 0 0.866572 11.4022
0.431152 0 0.694007 7.90482
0.470819 0 0.694673 6.96169
0.450737 0 0.652842 7.9405
0.484302 0 0.656811 7.58173
0.493694 0 0.575025 10.7474
0.479551 0 0.617081 9.39376
0.503938 0 0.628846 7.98562
0.512111 0 0.599454 11.9902
0.425059 0 0.513164 4.02947
0.397835 0 0.581935 5.67537
0.464348 0 0.514938 9.53072
0.453347 0 0.547587 8.06915
0.453744 0 0.590817 6.1866
0.493977 0 0.502861 12.0266
0.493719 0 0.539248 11.3077
0.522538 0 0.545622 14.0652
0.526192 0 0.573551 13.6165
0.471692 0 0.479309 9.46278
0.49451 0 0.459975 10.8831
0.490891 0 0.418225 11.2533
0.523104 0 0.514681 12.4606
0.519691 0 0.480158 10.8256
0.523374 0 0.441724 8.23585
0.555745 0 0.530401 13.0567
0.562078 0 0.498177 12.0789
0.580797 0 0.519386 11.6163
0.577488 0 0.474598 12.6953
0.579603 0 0.439643 9.68812
0.607228 0 0.494141 10.9457
0.607101 0 0.458291 10.9774
0.549621 0 0.598934 10.5341
0.561808 0 0.561773 12.6081
0.560301 0 0.649566 6.17997
0.595519 0 0.647373 9.21875
0.578394 0 0.613294 10.0983
0.58204 0 0.579968 12.4154
0.618261 0 0.617462 7.96956
0.608204 0 0.562703 11.3593
0.625425 0 0.537989 11.1329
0.646326 0 0.557886 11.3598
0.648894 0 0.58809 10.4055
0.647871 0 0.621527 9.47837
0.674046 0 0.587591 12.9842
0.61841 0 0.714586 13.4789
0.630036 0 0.75134 14.4936
0.606829 0 0.681187 10.4356
0.628485 0 0.656919 10.2573
0.668033 0 0.651506 6.63044
0.647397 0 0.692156 12.5451
0.65328 0 0.736619 14.4612
0.667489 0 0.766167 13.3932
0.67277 0 0.710866 13.2034
0.701071 0 0.700598 10.9686
0.689548 0 0.755734 14.034
0.70342 0 0.731351 12.0401
0.455788 0 0.8277 11.1771
0.48697 0 0.854375 9.85067
0.468873 0 0.792843 8.23352
0.470244 0 0.739029 6.71473
0.494639 0 0.761248 7.87178
0.493958 0 0.802888 8.92822
0.521111 0 0.780225 10.7721
0.461944 0 0.904791 10.173
0.501604 0 0.895925 7.88707
0.519104 0 0.863792 11.0409
0.545141 0 0.827623 11.2147
0.543249 0 0.878731 10.3873
0.568071 0 0.86744 11.9388
0.47831 0 0.98509 14.9659
0.507177 0 0.983097 14.2115
0.524377 0 0.957053 8.80615
0.540417 0 0.985936 15.0241
0.560266 0 0.956463 11.1664
0.573024 0 0.985522 15.4268
0.600441 0 0.9765 12.5291
0.586483 0 0.938849 12.7405
0.602316 0 0.911306 11.9912
0.619586 0 0.947669 12.953
0.631061 0 0.912949 12.3339
0.524908 0 0.751273 9.84045
0.536534 0 0.709791 4.56014
0.547537 0 0.759873 13.2297
0.557152 0 0.795427 9.47179
0.578483 0 0.692195 8.23834
0.589939 0 0.732827 12.853
0.571649 0 0.755201 13.3046
0.602713 0 0.75965 12.3143
0.572487 0 0.833921 13.9619
0.596815 0 0.852649 14.3308
0.595131 0 0.808787 10.0263
0.624667 0 0.832022 12.9906
0.621761 0 0.867866 14.6449
0.652608 0 0.853462 14.6784
0.645794 0 0.883326 13.0897
0.682518 0 0.911943 3.97306
0.658685 0 0.969735 3.75298
0.707056 0 0.970653 3.79521
0.634112 0 0.784483 9.62063
0.657879 0 0.813336 11.7065
0.678221 0 0.840064 11.1966
0.7154 0 0.868162 4.18695
0.691891 0 0.813289 9.3067
0.726458 0 0.775104 4.75915
0.744904 0 0.818861 4.33104
0.637046 0 0.467095 8.35834
0.651757 0 0.513436 8.91587
0.667989 0 0.484602 8.84441
0.697989 0 0.443772 7.4919
0.677037 0 0.542464 11.3243
0.688006 0 0.508338 10.717
0.729814 0 0.410301 7.92784
0.728697 0 0.455595 7.80993
0.761851 0 0.396478 8.25617
0.759903 0 0.435532 8.44185
0.722926 0 0.497322 7.09568
0.764301 0 0.522497 7.13941
0.757041 0 0.477934 7.69261
0.786019 0 0.468276 8.18751
0.701211 0 0.597971 11.1855
0.713458 0 0.659406 8.76457
0.708907 0 0.625659 9.71151
0.695085 0 0.561645 11.1778
0.724549 0 0.537661 7.12269
0.739591 0 0.571627 6.83274
0.735854 0 0.691832 5.85285
0.753374 0 0.644968 6.59304
0.767151 0 0.735559 5.19119
0.770599 0 0.687005 6.52706
0.75716 0 0.603767 6.79408
0.782642 0 0.573199 7.43267
0.789686 0 0.617886 7.3319
0.794875 0 0.661903 7.10464
0.798845 0 0.539767 7.51408
0.832852 0 0.541505 7.76249
0.806565 0 0.501703 7.62121
0.844109 0 0.496789 7.86063
0.858013 0 0.447953 8.7645
0.877207 0 0.486804 8.45278
0.869153 0 0.536366 8.31831
0.89919 0 0.518826 8.81208
0.822456 0 0.632877 7.52396
0.854693 0 0.626383 8.1656
0.821958 0 0.587392 7.71626
0.859135 0 0.576716 8.40989
0.885505 0 0.604371 8.43743
0.904284 0 0.570331 8.94397
0.890697 0 0.645663 8.60267
0.920189 0 0.620977 9.09896
0.92638 0 0.533869 9.63086
0.955966 0 0.536471 10.2308
0.922526 0 0.48275 9.60003
0.953695 0 0.493001 10.2208
0.984874 0 0.521177 10.6672
0.984475 0 0.47658 10.9875
0.942427 0 0.577278 9.87564
0.954826 0 0.615528 9.74331
0.981657 0 0.565363 10.574
0.984946 0 0.605789 10.2506
0.736272 0 0.930152 4.21345
0.758358 0 0.975288 4.81995
0.796687 0 0.978221 6.12271
0.781844 0 0.937532 5.8559
0.759925 0 0.893284 5.11294
0.795785 0 0.897813 6.3487
0.819458 0 0.934863 6.85687
0.832625 0 0.896041 7.19192
0.858206 0 0.934423 7.26879
0.832037 0 0.975365 6.51698
0.864362 0 0.978438 7.2171
0.773684 0 0.85309 5.50202
0.793597 0 0.816143 6.44809
0.808874 0 0.85568 6.75486
0.780649 0 0.778564 5.85862
0.828048 0 0.804257 7.07356
0.838977 0 0.852251 7.34949
0.863712 0 0.834566 7.67559
0.866864 0 0.887593 7.64151
0.891426 0 0.856829 7.69832
0.895456 0 0.971872 7.79168
0.926116 0 0.97589 8.21984
0.89237 0 0.922802 7.80848
0.928077 0 0.927216 8.34484
0.956833 0 0.982704 8.96257
0.957648 0 0.944229 8.90202
0.986476 0 0.97379 9.34477
0.912425 0 0.887657 7.88506
0.944475 0 0.877303 8.21944
0.958351 0 0.833635 8.41061
0.964828 0 0.902548 9.05406
0.987422 0 0.923764 9.25738
0.984874 0 0.865162 9.0742
0.80389 0 0.711943 6.61393
0.828877 0 0.673989 7.4438
0.816441 0 0.758133 6.69704
0.855307 0 0.752557 7.25451
0.843355 0 0.713982 7.03834
0.864979 0 0.674074 7.90213
0.884724 0 0.715123 7.50598
0.911117 0 0.679364 8.60998
0.862512 0 0.792469 7.60564
0.894965 0 0.810579 7.89364
0.924406 0 0.837693 7.88808
0.925938 0 0.787342 7.82073
0.892617 0 0.764089 7.54978
0.921699 0 0.734297 7.82108
0.943933 0 0.695171 8.79029
0.94624 0 0.656169 9.26961
0.982207 0 0.649649 9.85664
0.982 0 0.695709 9.19541
0.956496 0 0.736754 8.33198
0.9857 0 0.751429 8.75395
0.95827 0 0.786576 8.11368
0.986603 0 0.809227 8.91785
0.287162 0 0.279937 6.19324
0.320743 0 0.307984 6.13907
0.347757 0 0.319147 9.63777
0.346819 0 0.286249 9.24375
0.373213 0 0.304914 10.6061
0.371443 0 0.276607 9.00938
0.397947 0 0.263219 9.75713
0.365553 0 0.344217 9.05153
0.386045 0 0.394 6.69034
0.391071 0 0.340637 12.6771
0.408798 0 0.365909 7.71257
0.416569 0 0.32426 8.74888
0.386528 0 0.43722 7.0719
0.419503 0 0.444923 6.58217
0.442461 0 0.479542 7.17268
0.463422 0 0.440208 8.56008
0.459525 0 0.400891 8.91832
0.447766 0 0.304984 12.3848
0.451355 0 0.373347 9.92877
0.462278 0 0.337819 14.7121
0.42614 0 0.25602 12.1466
0.410882 0 0.231982 9.14963
0.445377 0 0.230412 11.0298
0.455505 0 0.260589 12.7789
0.430349 0 0.17087 11.1135
0.421125 0 0.1444 7.11082
0.474455 0 0.195283 10.4779
0.454889 0 0.167792 10.2627
0.479255 0 0.248878 12.5799
0.472861 0 0.299745 15.2042
0.501089 0 0.205109 12.597
0.523784 0 0.223452 13.2746
0.485664 0 0.378466 12.1368
0.494607 0 0.322817 13.6645
0.511466 0 0.354543 10.66
0.514784 0 0.396854 10.9686
0.540238 0 0.367932 7.80114
0.557665 0 0.401673 8.41137
0.495333 0 0.281116 13.9755
0.51695 0 0.308772 10.0163
0.525142 0 0.276018 10.6774
0.511117 0 0.249624 14.1409
0.547998 0 0.248777 10.7612
0.580491 0 0.244948 12.6156
0.589787 0 0.28198 8.28408
0.579417 0 0.378211 9.68071
0.593605 0 0.343033 6.5538
0.602156 0 0.403903 6.57922
0.659003 0 0.375616 11.9799
0.66773 0 0.410735 8.69193
0.703483 0 0.389423 6.96894
0.618849 0 0.295415 13.9033
0.626035 0 0.331518 10.0364
0.645252 0 0.301255 11.3553
0.654182 0 0.342378 13.8456
0.687387 0 0.300449 8.35385
0.678465 0 0.350086 13.3316
0.431565 0 0.0147269 14.4203
0.440829 0 0.0743895 8.37281
0.444152 0 0.044681 13.092
0.469457 0 0.0752532 12.0447
0.460722 0 0.0232085 12.1003
0.486823 0 0.0346884 9.79593
0.480174 0 0.111612 9.65753
0.50801 0 0.11783 12.4609
0.484084 0 0.171332 9.05339
0.493168 0 0.0858976 13.2451
0.511535 0 0.0572878 9.08308
0.508154 0 0.0215819 5.65382
0.531595 0 0.185913 10.6219
0.563348 0 0.212118 12.6183
0.597203 0 0.215339 14.8328
0.584464 0 0.185391 14.7639
0.526539 0 0.146407 11.0022
0.528228 0 0.0813622 8.88617
0.542709 0 0.0994305 9.47063
0.557729 0 0.116174 7.62743
0.55771 0 0.150814 11.4894
0.561657 0 0.176939 13.2035
0.589924 0 0.142193 7.4362
0.607849 0 0.173513 11.6049
0.608622 0 0.255453 14.5255
0.635373 0 0.266017 15.6397
0.623986 0 0.224394 13.0745
0.630998 0 0.185853 7.46855
0.65344 0 0.241756 11.7193
0.666608 0 0.268804 13.191
0.705346 0 0.246687 7.69217
0.686762 0 0.207333 7.51902
0.716552 0 0.188312 8.77623
0.741516 0 0.248929 8.11987
0.747186 0 0.20591 8.67683
0.603986 0 0.00856752 6.42899
0.623366 0 0.0186051 12.5288
0.613295 0 0.0717605 3.41
0.63788 0 0.0767318 8.01275
0.651756 0 0.0968135 9.49483
0.636384 0 0.0458373 12.0171
0.652003 0 0.0165536 13.2372
0.680799 0 0.0183057 12.9594
0.695961 0 0.0556637 11.8401
0.660634 0 0.134563 8.39896
0.679655 0 0.165757 8.8523
0.666246 0 0.0584256 11.7101
0.681571 0 0.102156 10.7907
0.709919 0 0.0920901 11.0243
0.737775 0 0.106393 10.5922
0.706516 0 0.137068 10.1336
0.738703 0 0.151817 9.64976
0.711435 0 0.0191026 12.7741
0.742455 0 0.0203856 12.3377
0.72917 0 0.0579077 11.4194
0.760365 0 0.0701038 11.004
0.771844 0 0.0205339 12.6185
0.78969 0 0.0569307 11.4307
0.821873 0 0.0581086 11.4803
0.802864 0 0.0189742 12.7575
0.833282 0 0.0194998 12.8602
0.768672 0 0.173058 9.14784
0.795495 0 0.146767 9.84302
0.767392 0 0.121063 10.2713
0.796366 0 0.0991045 10.5743
0.825387 0 0.138012 10.2863
0.829027 0 0.0981909 10.8411
0.833613 0 0.179068 9.98285
0.859071 0 0.141461 10.8418
0.856577 0 0.0582276 11.7902
0.863627 0 0.0190643 12.8245
0.857834 0 0.0988221 11.2416
0.885381 0 0.101152 11.5184
0.894606 0 0.0197165 13.2307
0.926136 0 0.0164183 13.612
0.892496 0 0.0580817 12.2953
0.918354 0 0.0873222 12.1756
0.930337 0 0.0515311 12.8658
0.956443 0 0.0803852 12.7212
0.984466 0 0.0629784 13.5916
0.957673 0 0.0238259 13.964
0.9861 0 0.0206646 14.5858
0.887282 0 0.159027 10.75
0.90537 0 0.197936 10.6448
0.937991 0 0.215682 11.0593
0.92736 0 0.16499 11.3674
0.906591 0 0.129185 11.2785
0.938181 0 0.120275 11.8042
0.963438 0 0.136463 12.4164
0.985556 0 0.111351 12.8464
0.957137 0 0.180055 11.7565
0.986951 0 0.164813 12.5188
0.715487 0 0.337272 7.04999
0.729863 0 0.294001 7.76233
0.741863 0 0.35974 7.93677
0.776698 0 0.360107 8.69601
0.773699 0 0.277455 8.19844
0.761355 0 0.318813 8.28286
0.79724 0 0.333906 8.68678
0.809074 0 0.297205 8.81407
0.792061 0 0.430209 8.80871
0.796363 0 0.392066 8.84147
0.821601 0 0.459059 8.36559
0.826244 0 0.41755 8.66605
0.823285 0 0.370667 8.9229
0.832772 0 0.329109 9.24953
0.856725 0 0.400232 8.94538
0.857915 0 0.358207 9.64351
0.78054 0 0.229565 8.64055
0.79994 0 0.192018 9.36582
0.810862 0 0.255418 8.95994
0.825702 0 0.221375 9.38096
0.855838 0 0.236919 9.78373
0.86582 0 0.193681 10.2062
0.862585 0 0.310637 9.71777
0.841771 0 0.278487 9.41105
0.887238 0 0.334724 9.78904
0.906186 0 0.299206 9.9681
0.880113 0 0.272174 9.9311
0.890696 0 0.231981 10.3558
0.919378 0 0.256438 10.4449
0.891768 0 0.375543 9.6363
0.924464 0 0.387026 10.2587
0.889123 0 0.416344 9.4793
0.896366 0 0.455595 9.45176
0.92466 0 0.431867 10.0965
0.954023 0 0.44867 10.5487
0.984405 0 0.430712 11.0065
0.955297 0 0.39985 10.4111
0.984688 0 0.381315 11.2036
0.920979 0 0.342909 10.2415
0.942623 0 0.300793 10.5253
0.953676 0 0.349252 10.6897
0.984332 0 0.336249 11.3151
0.954717 0 0.254404 11.0953
0.980779 0 0.212139 12.1923
0.97966 0 0.295829 11.2675
0.985745 0 0.254028 12.0123
